<?xml version="1.0" encoding="UTF-8"?>
<svg xmlns="http://www.w3.org/2000/svg" viewBox="0 0 1600 1600">
  <rect width="1600" height="1600" fill="#ffffff"/>
  <path fill="#D12E26" transform="translate(500, 100)" d="M774.14,231.6c-8.55-99.49-69.03-176.77-163.41-204.68-47.57-13.96-95.44-25.66-147.06-25.81L.3-.09l-.3,1378.71h368.09l2.1-550.56c162.21,3.3,388.5,1.5,405-207.23,10.5-132.05,10.05-260.8-1.05-389.25ZM444.77,568.62c-21.01,14.56-44.27,17.11-74.73,13.05l-.45-336.58c25.96-2.7,49.97-1.5,71.88,10.35,20.26,11.1,28.66,36.01,29.41,59.27,1.8,64.22,13.8,225.98-26.11,253.89Z"/>
</svg>
