<?xml version="1.0" encoding="UTF-8"?>
<svg id="Calque_1" data-name="Calque 1" xmlns="http://www.w3.org/2000/svg" viewBox="0 0 5284.52 1378.62">
  <defs>
    <style>
      .cls-1 {
        fill: #D12E26;
      }
    </style>
  </defs>
  <path class="cls-1" d="M2626.2,506s6.17-40.87,6.24-41.52l7.8-37.36c19.51-141.65,50.87-281.05,81.78-427.21l668.5-.15,82.23,801.15v7.35c0,25.06-3.3,50.42,2.55,75.48,20.41-13.05,12.45-31.96,12.45-52.97v-29.86L3561.58-.24l386.09.45-182.17,1378.41-553.86,1.2-181.27-1206.9c.45-14.26,3-30.01-13.05-37.66-4.35,7.8-1.95,12.9-3,22.81l-214.58,718.17-1.05,502.24-341.08.6-.75-495.64L2205.07-.09l337.03.3c27.76,146.76,56.57,285.41,75.03,434.41"/>
  <polygon class="cls-1" points="4342.69 1379.38 3973.61 1378.77 3974.01 .08 4341.69 -.34 4342.69 1379.38"/>
  <path class="cls-1" d="M5078.05-.24l-527.45.9-183.22,1377.96,380.69.3,21.16-242.04c43.37-2.25,80.13-5.55,122.3,1.8l19.06,240.99,373.94-1.35L5078.05-.24ZM4766.08,880.59l47.68-424.89c1.03-9.14,2.77-18.18,5.22-27.03l8.77-31.71c4.05,17.71,9,34.96,10.65,52.82l40.37,430.96c-41.87,2.25-76.08,2.55-112.69-.15Z"/>
  <path class="cls-1" d="M2159.31-.24l-527.45.9-183.37,1377.96,380.84.3,20.86-242.19c43.82-1.95,80.58-5.55,122.45,2.1l19.06,240.84,374.24-1.05L2159.31-.24ZM1847.19,880.59l49.52-438.61s9.37-62,9.37-61.97c0-.03,6.84,47.11,6.84,47.11l48.17,452.57c-38.71,4.35-74.88,3.15-113.89.9Z"/>
  <polygon class="cls-1" points="1434.12 1099.64 1436.68 1379.11 849.81 1378.81 850.6 .02 1217.26 0 1218.58 1096.53 1434.12 1099.64"/>
  <path class="cls-1" d="M774.14,231.6c-8.55-99.49-69.03-176.77-163.41-204.68-47.57-13.96-95.44-25.66-147.06-25.81L.3-.09l-.3,1378.71h368.09l2.1-550.56c162.21,3.3,388.5,1.5,405-207.23,10.5-132.05,10.05-260.8-1.05-389.25ZM444.77,568.62c-21.01,14.56-44.27,17.11-74.73,13.05l-.45-336.58c25.96-2.7,49.97-1.5,71.88,10.35,20.26,11.1,28.66,36.01,29.41,59.27,1.8,64.22,13.8,225.98-26.11,253.89Z"/>
</svg>