<svg width="40" height="40" viewBox="0 0 40 40" fill="none" xmlns="http://www.w3.org/2000/svg">
  <path d="M15.6912 39.9829L8.93145 40C8.30071 40 7.94079 39.6641 7.81738 39.0059V0.987231C7.91336 0.335933 8.31785 0.00685528 8.93145 0.00685528L15.4479 0C16.0203 0 16.6168 0.359928 16.6168 1.06607V38.9305C16.6202 39.4892 16.2774 39.9829 15.6878 39.9829H15.6912Z" />
  <path d="M31.2713 39.9829L24.4978 40C23.8808 40 23.4043 39.6572 23.4043 38.9305V1.06264C23.442 0.359928 23.8671 0.00685528 24.5012 0.00685528L31.0176 0C31.6038 0 32.1831 0.3565 32.1831 1.06607V38.9339C32.1865 39.4824 31.8677 39.9829 31.2747 39.9863L31.2713 39.9829Z" />
</svg>
