<svg width="40" height="40" viewBox="0 0 40 40" fill="none" xmlns="http://www.w3.org/2000/svg">
  <path d="M20.0122 1.04687e-05C22.6295 1.04687e-05 25.229 0.508365 27.6634 1.50982C29.9961 2.47824 32.1229 3.87621 33.9347 5.63766L30.644 7.54653C23.7781 1.6725 13.4538 2.47824 7.58137 9.34611C5.04286 12.3149 3.65035 16.0945 3.65543 20.0012C3.65543 29.0372 10.9788 36.3626 20.0122 36.3626C29.0457 36.3626 36.369 29.0372 36.369 20.0012L36.3512 19.2006C36.3157 18.4685 36.2293 17.739 36.0971 17.0197L39.3878 15.1108C42.089 25.8193 35.5991 36.693 24.8936 39.3924C22.4135 40.0177 19.8394 40.1625 17.306 39.8169C6.3642 38.3299 -1.30217 28.2543 0.184346 17.3095C1.52857 7.3864 10.003 -0.0101566 20.0122 1.04687e-05ZM32.8802 11.3617L18.4114 17.2713C16.8054 17.9576 16.0583 19.8157 16.7444 21.4221C17.4305 23.0285 19.288 23.7757 20.894 23.0895C21.1303 22.9878 21.3514 22.8607 21.5572 22.7057L33.9169 13.1435C34.3692 12.7927 34.4505 12.1421 34.0999 11.6896C33.8178 11.3261 33.3274 11.1914 32.8979 11.3617H32.8802Z" />
</svg>
